<svg width="40" height="40" viewBox="0 0 40 40" fill="none" xmlns="http://www.w3.org/2000/svg">
<path d="M28.7898 23.06V20.0514H39.6926V23.06H28.7898Z" fill="#808080"/>
<path d="M15.4939 29V11H27.3996V13.9057H19.0939V18.4571H26.6282V21.26H19.0939V26.0943H27.3996V29H15.4939Z" fill="#808080"/>
<path d="M0 29V11H6.86571C8.32286 11 9.52286 11.2486 10.4657 11.7457C11.4257 12.2257 12.1371 12.8943 12.6 13.7514C13.08 14.5914 13.32 15.5429 13.32 16.6057C13.32 17.6686 13.0286 18.6286 12.4457 19.4857C11.8629 20.3257 11.0829 20.9857 10.1057 21.4657C9.12857 21.9457 8.04857 22.1857 6.86571 22.1857H3.6V29H0ZM10.1057 29L9.82286 24.8086C9.78857 24.2086 9.66857 23.72 9.46286 23.3429C9.27429 22.9486 8.97429 22.6571 8.56286 22.4686C8.15143 22.28 7.59429 22.1857 6.89143 22.1857V19.5371C8.29714 19.5371 9.47143 19.7514 10.4143 20.18C11.3743 20.5914 12.1029 21.1914 12.6 21.98C13.0971 22.7686 13.3714 23.7114 13.4229 24.8086L13.6286 29H10.1057ZM3.6 19.28H6.63429C7.69714 19.28 8.46857 19.04 8.94857 18.56C9.42857 18.08 9.66857 17.4286 9.66857 16.6057C9.66857 15.7657 9.42857 15.1143 8.94857 14.6514C8.46857 14.1714 7.69714 13.9314 6.63429 13.9314H3.6V19.28Z" fill="#808080"/>
</svg>
