<svg width="40" height="40" viewBox="0 0 40 40" fill="none" xmlns="http://www.w3.org/2000/svg">
<g clip-path="url(#clip0_38_2)">
<path d="M23.7972 29.7906V28.9324C24.4561 28.8977 24.9069 28.7503 25.1496 28.4903C25.3924 28.2128 25.5224 27.8401 25.5398 27.3719C25.5744 26.8865 25.5918 26.3403 25.5918 25.7334V14.4981C25.5918 14.1514 25.6004 13.8219 25.6178 13.5098C25.6351 13.1804 25.6525 12.8857 25.6698 12.6256C25.3577 12.6429 25.0456 12.6602 24.7335 12.6776C24.4214 12.6949 24.1093 12.7123 23.7972 12.7296V11.5853H29.649V12.4435C29.0074 12.4609 28.5566 12.6082 28.2966 12.8857C28.0538 13.1631 27.9151 13.5358 27.8804 14.004C27.8631 14.4721 27.8544 15.0183 27.8544 15.6425V19.9077H29.805L33.056 14.7842C33.2814 14.4374 33.5588 14.056 33.8882 13.6399C34.2177 13.2237 34.5558 12.877 34.9025 12.5996C34.6424 12.6169 34.3737 12.6256 34.0963 12.6256C33.8362 12.6256 33.5761 12.6342 33.3161 12.6516V11.5853H38.9077V12.4435C38.1795 12.4955 37.5293 12.6169 36.9571 12.8076C36.385 12.9984 35.8388 13.3365 35.3186 13.8219C34.7985 14.2901 34.2437 15.0009 33.6542 15.9546L31.1054 20.0118C31.6082 20.3065 32.0157 20.6533 32.3278 21.0521C32.6399 21.4335 32.9519 21.8236 33.264 22.2224L36.1769 26.0976C36.8358 26.9645 37.3733 27.606 37.7894 28.0221C38.2228 28.4209 38.6043 28.6723 38.9337 28.7763C39.2805 28.8804 39.6359 28.9324 40 28.9324V29.7906H36.8271C36.6537 29.7906 36.4196 29.6693 36.1249 29.4265C35.8475 29.1838 35.544 28.8717 35.2146 28.4903C34.8852 28.0915 34.5471 27.6754 34.2003 27.2419L31.0794 23.0286C30.75 22.5952 30.4205 22.1877 30.0911 21.8063C29.7617 21.4075 29.4409 21.1127 29.1288 20.922L27.8544 20.948V26.6957C27.8544 27.1639 27.8458 27.5713 27.8284 27.9181C27.8284 28.2475 27.8111 28.5249 27.7764 28.7503C28.0885 28.733 28.4006 28.7157 28.7127 28.6983C29.0248 28.681 29.3369 28.6636 29.649 28.6463V29.7906H23.7972Z" fill="#8E8E8E"/>
<path d="M15.3695 30.2068C14.8841 30.2068 14.4333 30.1287 14.0171 29.9727C13.601 29.834 13.2629 29.6259 13.0028 29.3485C12.7428 29.0711 12.6127 28.7417 12.6127 28.3602C12.6127 28.0135 12.6994 27.71 12.8728 27.45C13.0635 27.1725 13.3496 27.0252 13.7311 27.0078C14.1645 26.9731 14.4593 27.0945 14.6153 27.3719C14.7887 27.632 14.8754 27.8921 14.8754 28.1522C14.8754 28.2215 14.8667 28.3169 14.8494 28.4382C14.8321 28.5423 14.806 28.6376 14.7714 28.7243C14.8754 28.8977 15.0401 29.0191 15.2655 29.0884C15.4909 29.1404 15.6643 29.1578 15.7857 29.1404C16.3058 29.1231 16.6873 28.889 16.93 28.4382C17.1901 27.9874 17.3201 27.2332 17.3201 26.1756V14.9403C17.3201 14.5415 17.3201 14.1514 17.3201 13.7699C17.3201 13.3885 17.3201 13.007 17.3201 12.6256C16.8867 12.6429 16.4445 12.6602 15.9937 12.6776C15.5603 12.6949 15.1181 12.7123 14.6673 12.7296V11.5853H21.5854V12.4435C21.0132 12.4435 20.5798 12.5562 20.285 12.7816C20.0076 13.007 19.8169 13.3191 19.7128 13.7179C19.6261 14.0993 19.5828 14.5328 19.5828 15.0183V23.4448C19.5828 25.8895 19.2534 27.632 18.5945 28.6723C17.9356 29.6953 16.8607 30.2068 15.3695 30.2068Z" fill="#8E8E8E"/>
<path d="M-0.153198 29.7906V28.9324C0.505663 28.8977 0.956463 28.7503 1.1992 28.4903C1.44194 28.2128 1.57198 27.8401 1.58932 27.3719C1.62399 26.8865 1.64133 26.3403 1.64133 25.7334V14.4981C1.64133 14.1514 1.65 13.8219 1.66734 13.5098C1.68468 13.1804 1.70202 12.8857 1.71935 12.6256C1.40726 12.6429 1.09517 12.6602 0.783078 12.6776C0.470986 12.6949 0.158894 12.7123 -0.153198 12.7296V11.5853H11.9144L12.0444 16.1366H11.1861C11.1861 15.1136 11.0214 14.3421 10.692 13.8219C10.3626 13.2844 9.92911 12.929 9.39162 12.7556C8.85413 12.5649 8.25595 12.4782 7.59709 12.4955L5.69853 12.5476C5.05701 12.5649 4.61488 12.7209 4.37214 13.0157C4.1294 13.2931 3.99069 13.6659 3.95602 14.134C3.92134 14.6022 3.904 15.1396 3.904 15.7465V20.2198L8.42934 20.2458L8.24728 17.9832H9.39162V23.4708H8.55937C8.55937 22.6905 8.44667 22.1357 8.22127 21.8063C8.01321 21.4769 7.68378 21.2775 7.23298 21.2081C6.78218 21.1388 6.19268 21.1214 5.46446 21.1561L3.904 21.2341V26.6957C3.904 27.1639 3.89533 27.5713 3.87799 27.9181C3.87799 28.2475 3.86065 28.5249 3.82598 28.7503C4.12073 28.733 4.41548 28.7243 4.71024 28.7243C5.00499 28.707 5.29974 28.6897 5.5945 28.6723C5.88925 28.655 6.18401 28.6463 6.47876 28.6463V29.7906H-0.153198Z" fill="#8E8E8E"/>
</g>
<defs>
<clipPath id="clip0_38_2">
<rect width="40" height="40" fill="white"/>
</clipPath>
</defs>
</svg>
