<svg width="40" height="40" viewBox="0 0 40 40" fill="none" xmlns="http://www.w3.org/2000/svg">
<rect width="40" height="40" fill="black"/>
<path d="M25.8468 33.208C25.1635 33.208 24.5291 33.0982 23.9434 32.8785C23.3578 32.6833 22.8819 32.3905 22.5159 32.0001C22.1498 31.6096 21.9668 31.146 21.9668 30.6091C21.9668 30.1211 22.0888 29.6941 22.3329 29.328C22.6013 28.9376 23.0039 28.7302 23.5408 28.7058C24.1508 28.657 24.5657 28.8278 24.7853 29.2182C25.0293 29.5842 25.1513 29.9503 25.1513 30.3163C25.1513 30.4139 25.1391 30.5481 25.1147 30.7189C25.0903 30.8654 25.0537 30.9996 25.0049 31.1216C25.1513 31.3656 25.3831 31.5364 25.7004 31.634C26.0176 31.7072 26.2616 31.7316 26.4324 31.7072C27.1645 31.6828 27.7013 31.3534 28.043 30.7189C28.409 30.0845 28.592 29.023 28.592 27.5345V11.7218C28.592 11.1606 28.592 10.6115 28.592 10.0747C28.592 9.53783 28.592 9.00098 28.592 8.46413C27.982 8.48854 27.3597 8.51294 26.7253 8.53734C26.1152 8.56174 25.4929 8.58614 24.8585 8.61055V7H34.595V8.20791C33.7897 8.20791 33.1796 8.36652 32.7648 8.68375C32.3744 9.00098 32.1059 9.44022 31.9595 10.0015C31.8375 10.5383 31.7765 11.1484 31.7765 11.8316V23.6911C31.7765 27.1318 31.3129 29.5842 30.3856 31.0484C29.4583 32.4881 27.9454 33.208 25.8468 33.208Z" fill="white"/>
<path d="M6 32.6223V31.4144C6.92728 31.3656 7.56174 31.1582 7.90337 30.7921C8.245 30.4017 8.42802 29.8771 8.45242 29.2182C8.50123 28.5349 8.52563 27.7663 8.52563 26.9122V11.0996C8.52563 10.6115 8.53783 10.1479 8.56223 9.70864C8.58663 9.245 8.61104 8.83017 8.63544 8.46413C8.1962 8.48854 7.75696 8.51294 7.31772 8.53734C6.87848 8.56174 6.43924 8.58614 6 8.61055V7H22.9839L23.167 13.4056H21.959C21.959 11.9658 21.7272 10.88 21.2636 10.1479C20.7999 9.39142 20.1899 8.89117 19.4334 8.64715C18.6769 8.37872 17.8351 8.25671 16.9078 8.28112L14.2357 8.35432C13.3329 8.37872 12.7106 8.59834 12.369 9.01318C12.0273 9.40362 11.8321 9.92826 11.7833 10.5871C11.7345 11.246 11.7101 12.0025 11.7101 12.8565V19.1523L18.0791 19.1889L17.8229 16.0044H19.4334V23.7277H18.2621C18.2621 22.6296 18.1035 21.8487 17.7863 21.3851C17.4934 20.9215 17.0298 20.6408 16.3953 20.5432C15.7609 20.4456 14.9312 20.4212 13.9063 20.47L11.7101 20.5798V28.2665C11.7101 28.9254 11.6979 29.4988 11.6735 29.9869C11.6735 30.4505 11.6491 30.841 11.6003 31.1582C12.0151 31.1338 12.43 31.1216 12.8448 31.1216C13.2597 31.0972 13.6745 31.0728 14.0893 31.0484C14.5042 31.024 14.919 31.0118 15.3338 31.0118V32.6223H6Z" fill="white"/>
</svg>
